<mxfile host="app.diagrams.net" modified="2022-03-08T10:40:10.683Z" agent="5.0 (X11)" etag="R1ksgoSVPG0v8Yoy966i" version="16.6.6" type="github">
  <diagram name="Page-1" id="f1b7ffb7-ca1e-a977-7cf5-a751b3c06c05">
    <mxGraphModel dx="2014" dy="509" grid="1" gridSize="10" guides="1" tooltips="1" connect="1" arrows="1" fold="1" page="1" pageScale="1" pageWidth="826" pageHeight="1169" background="none" math="0" shadow="0">
      <root>
        <mxCell id="0" />
        <mxCell id="1" parent="0" />
        <mxCell id="6YZUt8zm5hEsy2tXypv2-62" value="" style="strokeWidth=1;shadow=0;dashed=0;align=center;html=1;shape=mxgraph.mockup.containers.browserWindow;rSize=0;strokeColor=#666666;strokeColor2=#008cff;strokeColor3=#c4c4c4;mainText=,;recursiveResize=0;" vertex="1" parent="1">
          <mxGeometry x="20" y="190" width="720" height="570" as="geometry" />
        </mxCell>
        <mxCell id="6YZUt8zm5hEsy2tXypv2-63" value="Mapping" style="strokeWidth=1;shadow=0;dashed=0;align=center;html=1;shape=mxgraph.mockup.containers.anchor;fontSize=17;fontColor=#666666;align=left;" vertex="1" parent="6YZUt8zm5hEsy2tXypv2-62">
          <mxGeometry x="60" y="12" width="110" height="26" as="geometry" />
        </mxCell>
        <mxCell id="6YZUt8zm5hEsy2tXypv2-64" value="https://www.refugee.io" style="strokeWidth=1;shadow=0;dashed=0;align=center;html=1;shape=mxgraph.mockup.containers.anchor;rSize=0;fontSize=17;fontColor=#666666;align=left;" vertex="1" parent="6YZUt8zm5hEsy2tXypv2-62">
          <mxGeometry x="130" y="60" width="250" height="26" as="geometry" />
        </mxCell>
        <mxCell id="6YZUt8zm5hEsy2tXypv2-65" value="City" style="text;strokeColor=none;fillColor=none;html=1;fontSize=24;fontStyle=1;verticalAlign=middle;align=center;" vertex="1" parent="6YZUt8zm5hEsy2tXypv2-62">
          <mxGeometry x="-30" y="120" width="150" height="40" as="geometry" />
        </mxCell>
        <mxCell id="6YZUt8zm5hEsy2tXypv2-66" value="Kharkiv" style="strokeWidth=1;shadow=0;dashed=0;align=center;html=1;shape=mxgraph.mockup.forms.pwField;strokeColor=#999999;mainText=;align=left;fontColor=#666666;fontSize=17;spacingLeft=3;" vertex="1" parent="6YZUt8zm5hEsy2tXypv2-62">
          <mxGeometry x="110" y="125" width="110" height="30" as="geometry" />
        </mxCell>
        <mxCell id="6YZUt8zm5hEsy2tXypv2-79" value="" style="verticalLabelPosition=bottom;shadow=0;dashed=0;align=center;html=1;verticalAlign=top;strokeWidth=1;shape=mxgraph.mockup.misc.map;" vertex="1" parent="6YZUt8zm5hEsy2tXypv2-62">
          <mxGeometry x="243" y="180" width="320" height="300" as="geometry" />
        </mxCell>
        <mxCell id="6YZUt8zm5hEsy2tXypv2-67" value="100m" style="shape=ellipse;fillColor=#33FF33;strokeColor=#999999;gradientColor=#aaaaaa;html=1;align=left;spacingLeft=4;fontSize=17;fontColor=#666666;labelPosition=right;shadow=0;" vertex="1" parent="6YZUt8zm5hEsy2tXypv2-62">
          <mxGeometry x="240" y="132.5" width="15" height="15" as="geometry" />
        </mxCell>
        <mxCell id="6YZUt8zm5hEsy2tXypv2-69" value="5km" style="shape=ellipse;fillColor=#eeeeee;strokeColor=#999999;gradientColor=#cccccc;html=1;align=left;spacingLeft=4;fontSize=17;fontColor=#666666;labelPosition=right;shadow=0;" vertex="1" parent="6YZUt8zm5hEsy2tXypv2-62">
          <mxGeometry x="322.5" y="132.5" width="15" height="15" as="geometry" />
        </mxCell>
        <mxCell id="6YZUt8zm5hEsy2tXypv2-70" value="10km" style="shape=ellipse;fillColor=#eeeeee;strokeColor=#999999;gradientColor=#cccccc;html=1;align=left;spacingLeft=4;fontSize=17;fontColor=#666666;labelPosition=right;shadow=0;" vertex="1" parent="6YZUt8zm5hEsy2tXypv2-62">
          <mxGeometry x="392.5" y="132.5" width="15" height="15" as="geometry" />
        </mxCell>
        <mxCell id="6YZUt8zm5hEsy2tXypv2-75" value="30km" style="shape=ellipse;fillColor=#eeeeee;strokeColor=#999999;gradientColor=#cccccc;html=1;align=left;spacingLeft=4;fontSize=17;fontColor=#666666;labelPosition=right;shadow=0;" vertex="1" parent="6YZUt8zm5hEsy2tXypv2-62">
          <mxGeometry x="472.5" y="132.5" width="15" height="15" as="geometry" />
        </mxCell>
        <mxCell id="6YZUt8zm5hEsy2tXypv2-81" value="" style="ellipse;shape=doubleEllipse;whiteSpace=wrap;html=1;aspect=fixed;fillColor=#33FF33;" vertex="1" parent="6YZUt8zm5hEsy2tXypv2-62">
          <mxGeometry x="382.5" y="260" width="35" height="35" as="geometry" />
        </mxCell>
        <mxCell id="6YZUt8zm5hEsy2tXypv2-98" value="- MSF at xxx&lt;br&gt;- RedCross at yyy&lt;br&gt;- BlueCross at zzz&lt;br&gt;- PinkCross at xyz" style="strokeWidth=1;shadow=0;dashed=0;align=center;html=1;shape=mxgraph.mockup.text.bulletedList;textColor=#666666;mainText=,,,,;textSize=17;bulletStyle=none;strokeColor=none;fillColor=none;align=left;verticalAlign=top;fontSize=17;fontColor=#666666;" vertex="1" parent="6YZUt8zm5hEsy2tXypv2-62">
          <mxGeometry x="20" y="230" width="170" height="90" as="geometry" />
        </mxCell>
        <mxCell id="6YZUt8zm5hEsy2tXypv2-99" value="&lt;font style=&quot;font-size: 18px&quot;&gt;List of NGO:S&lt;/font&gt;" style="text;strokeColor=none;fillColor=none;html=1;fontSize=24;fontStyle=1;verticalAlign=middle;align=center;" vertex="1" parent="6YZUt8zm5hEsy2tXypv2-62">
          <mxGeometry x="10" y="190" width="150" height="40" as="geometry" />
        </mxCell>
        <mxCell id="6YZUt8zm5hEsy2tXypv2-100" value="" style="verticalLabelPosition=bottom;shadow=0;dashed=0;align=center;html=1;verticalAlign=top;strokeWidth=1;shape=mxgraph.mockup.navigation.scrollBar;strokeColor=#999999;barPos=20;fillColor2=#99ddff;strokeColor2=none;direction=north;fontSize=18;fillColor=#33FF33;" vertex="1" parent="6YZUt8zm5hEsy2tXypv2-62">
          <mxGeometry x="170" y="230" width="20" height="130" as="geometry" />
        </mxCell>
      </root>
    </mxGraphModel>
  </diagram>
</mxfile>
